<svg width="42" height="42" viewBox="0 0 42 42" fill="none" xmlns="http://www.w3.org/2000/svg">
<path d="M18.55 7.2625C18.55 7.595 18.27 7.875 17.9375 7.875H15.96C12.18 7.875 9.1 10.955 9.1 14.735V30.8875C9.1 31.22 8.82 31.5 8.4875 31.5H7.2625C5.18 31.5 3.5 29.82 3.5 27.7375V7.2625C3.5 5.18 5.18 3.5 7.2625 3.5H14.7875C16.87 3.5 18.55 5.18 18.55 7.2625Z" fill="black"/>
<path d="M38.5007 7.2625V27.7375C38.5007 29.82 36.8207 31.5 34.7382 31.5H33.6357C33.3032 31.5 33.0232 31.22 33.0232 30.8875V14.735C33.0232 10.955 29.9432 7.875 26.1632 7.875H24.0632C23.7307 7.875 23.4507 7.595 23.4507 7.2625C23.4507 5.18 25.1307 3.5 27.2132 3.5H34.7382C36.8207 3.5 38.5007 5.18 38.5007 7.2625Z" fill="black"/>
<path d="M26.1611 10.5H15.9586C13.6136 10.5 11.7236 12.39 11.7236 14.735V34.265C11.7236 36.61 13.6136 38.5 15.9586 38.5H18.8111C19.3011 38.5 19.6861 38.115 19.6861 37.625V33.25C19.6861 32.5325 20.2811 31.9375 20.9986 31.9375C21.7161 31.9375 22.3111 32.5325 22.3111 33.25V37.625C22.3111 38.115 22.6961 38.5 23.1861 38.5H26.1786C28.5061 38.5 30.3961 36.61 30.3961 34.2825V14.735C30.3961 12.39 28.5061 10.5 26.1611 10.5ZM24.4986 25.8125H17.4986C16.7811 25.8125 16.1861 25.2175 16.1861 24.5C16.1861 23.7825 16.7811 23.1875 17.4986 23.1875H24.4986C25.2161 23.1875 25.8111 23.7825 25.8111 24.5C25.8111 25.2175 25.2161 25.8125 24.4986 25.8125ZM24.4986 20.5625H17.4986C16.7811 20.5625 16.1861 19.9675 16.1861 19.25C16.1861 18.5325 16.7811 17.9375 17.4986 17.9375H24.4986C25.2161 17.9375 25.8111 18.5325 25.8111 19.25C25.8111 19.9675 25.2161 20.5625 24.4986 20.5625Z" fill="black"/>
</svg>
