<svg width="42" height="42" viewBox="0 0 42 42" fill="none" xmlns="http://www.w3.org/2000/svg">
<path d="M29.8139 0H12.2071C4.55927 0 0 4.557 0 12.201V29.778C0 37.443 4.55927 42 12.2071 42H29.7928C37.4407 42 41.9999 37.443 41.9999 29.799V12.201C42.0209 4.557 37.4617 0 29.8139 0ZM32.6293 17.262L29.3306 20.559C29.0155 20.874 28.6163 21.021 28.2171 21.021C27.8179 21.021 27.4187 20.874 27.1035 20.559C26.4942 19.95 26.4942 18.942 27.1035 18.333L27.6498 17.787H16.9765C14.2871 17.787 12.081 19.971 12.081 22.68C12.081 25.389 14.2661 27.573 16.9765 27.573H27.3136C28.175 27.573 28.8894 28.287 28.8894 29.148C28.8894 30.009 28.175 30.723 27.3136 30.723H16.9765C12.5433 30.723 8.92945 27.111 8.92945 22.68C8.92945 18.249 12.5433 14.637 16.9765 14.637H27.7969L27.1035 13.965C26.4942 13.356 26.4942 12.348 27.1035 11.739C27.7128 11.13 28.7213 11.13 29.3306 11.739L32.6293 15.036C33.2386 15.666 33.2386 16.653 32.6293 17.262Z" fill="black"/>
</svg>
