<svg width="38" height="38" viewBox="0 0 38 38" fill="none" xmlns="http://www.w3.org/2000/svg">
<path d="M31.8248 14.6005C28.959 14.6005 27.7873 12.5738 29.2123 10.088C30.0357 8.64718 29.5448 6.81051 28.104 5.98718L25.3648 4.41968C24.114 3.67551 22.499 4.11884 21.7548 5.36968L21.5807 5.67051C20.1557 8.15634 17.8123 8.15634 16.3715 5.67051L16.1973 5.36968C15.4848 4.11884 13.8698 3.67551 12.619 4.41968L9.87984 5.98718C8.439 6.81051 7.94817 8.66301 8.7715 10.1038C10.2123 12.5738 9.04067 14.6005 6.17484 14.6005C4.52817 14.6005 3.1665 15.9463 3.1665 17.6088V20.3955C3.1665 22.0422 4.51234 23.4038 6.17484 23.4038C9.04067 23.4038 10.2123 25.4305 8.7715 27.9163C7.94817 29.3572 8.439 31.1938 9.87984 32.0172L12.619 33.5847C13.8698 34.3288 15.4848 33.8855 16.229 32.6347L16.4032 32.3338C17.8282 29.848 20.1715 29.848 21.6123 32.3338L21.7865 32.6347C22.5307 33.8855 24.1457 34.3288 25.3965 33.5847L28.1357 32.0172C29.5765 31.1938 30.0673 29.3413 29.244 27.9163C27.8032 25.4305 28.9748 23.4038 31.8407 23.4038C33.4873 23.4038 34.849 22.058 34.849 20.3955V17.6088C34.8332 15.9622 33.4873 14.6005 31.8248 14.6005ZM18.9998 24.148C16.1657 24.148 13.854 21.8363 13.854 19.0022C13.854 16.168 16.1657 13.8563 18.9998 13.8563C21.834 13.8563 24.1457 16.168 24.1457 19.0022C24.1457 21.8363 21.834 24.148 18.9998 24.148Z" fill="black"/>
</svg>
