<svg width="24" height="24" viewBox="0 0 24 24" fill="none" xmlns="http://www.w3.org/2000/svg">
  <path d="M3 6H21C21.4142 6 21.75 5.66421 21.75 5.25C21.75 4.83579 21.4142 4.5 21 4.5H3C2.58579 4.5 2.25 4.83579 2.25 5.25C2.25 5.66421 2.58579 6 3 6Z" fill="white"/>
  <path d="M3 12.75H21C21.4142 12.75 21.75 12.4142 21.75 12C21.75 11.5858 21.4142 11.25 21 11.25H3C2.58579 11.25 2.25 11.5858 2.25 12C2.25 12.4142 2.58579 12.75 3 12.75Z" fill="white"/>
  <path d="M3 19.5H21C21.4142 19.5 21.75 19.1642 21.75 18.75C21.75 18.3358 21.4142 18 21 18H3C2.58579 18 2.25 18.3358 2.25 18.75C2.25 19.1642 2.58579 19.5 3 19.5Z" fill="white"/>
</svg>
